{
  "accessors": [
    {
      "bufferView": 0,
      "componentType": 5125,
      "count": 32256,
      "type": "SCALAR"
    },
    {
      "bufferView": 1,
      "componentType": 5126,
      "count": 5583,
      "max": [
        67.2415771484375,
        313.671875,
        67.2415771484375
      ],
      "min": [
        -67.2415771484375,
        -9.21238708496094,
        -67.2415771484375
      ],
      "type": "VEC3"
    },
    {
      "bufferView": 2,
      "componentType": 5126,
      "count": 5583,
      "type": "VEC3"
    },
    {
      "bufferView": 3,
      "componentType": 5126,
      "count": 5583,
      "type": "VEC4"
    },
    {
      "bufferView": 4,
      "componentType": 5126,
      "count": 5583,
      "type": "VEC2"
    }
  ],
  "asset": {
    "generator": "Adobe Substance 3D Painter 9.1.1",
    "version": "2.0"
  },
  "bufferViews": [
    {
      "buffer": 0,
      "byteLength": 129024,
      "target": 34963
    },
    {
      "buffer": 0,
      "byteLength": 66996,
      "byteOffset": 129024,
      "target": 34962
    },
    {
      "buffer": 0,
      "byteLength": 66996,
      "byteOffset": 196020,
      "target": 34962
    },
    {
      "buffer": 0,
      "byteLength": 89328,
      "byteOffset": 263016,
      "target": 34962
    },
    {
      "buffer": 0,
      "byteLength": 44664,
      "byteOffset": 352344,
      "target": 34962
    }
  ],
  "buffers": [
    {
      "byteLength": 397008,
      "uri": "asset.bin"
    }
  ],
  "images": [
    {
      "uri": "Can_Mat_baseColor.png"
    },
    {
      "uri": "Can_Mat_occlusionRoughnessMetallic.png"
    },
    {
      "uri": "Can_Mat_normal.png"
    }
  ],
  "materials": [
    {
      "alphaMode": "OPAQUE",
      "name": "Can_Mat",
      "normalTexture": {
        "index": 2
      },
      "occlusionTexture": {
        "index": 1
      },
      "pbrMetallicRoughness": {
        "baseColorTexture": {
          "index": 0
        },
        "metallicRoughnessTexture": {
          "index": 1
        }
      }
    }
  ],
  "meshes": [
    {
      "name": "can",
      "primitives": [
        {
          "attributes": {
            "NORMAL": 2,
            "POSITION": 1,
            "TANGENT": 3,
            "TEXCOORD_0": 4
          },
          "indices": 0,
          "material": 0,
          "mode": 4
        }
      ]
    }
  ],
  "nodes": [
    {
      "children": [
        1
      ],
      "name": "RootNode",
      "scale": [
        0.00999999977648258,
        0.00999999977648258,
        0.00999999977648258
      ]
    },
    {
      "children": [
        2
      ],
      "name": "can"
    },
    {
      "mesh": 0,
      "name": "can"
    }
  ],
  "samplers": [
    {
      "magFilter": 9729,
      "minFilter": 9985,
      "wrapS": 10497,
      "wrapT": 10497
    }
  ],
  "scene": 0,
  "scenes": [
    {
      "name": "Scene",
      "nodes": [
        0
      ]
    }
  ],
  "textures": [
    {
      "sampler": 0,
      "source": 0
    },
    {
      "sampler": 0,
      "source": 1
    },
    {
      "sampler": 0,
      "source": 2
    }
  ]
}