{
	"asset":{
		"generator":"Khronos glTF Blender I/O v3.6.27",
		"version":"2.0"
	},
	"scene":0,
	"scenes":[
		{
			"name":"Scene",
			"nodes":[
				0
			]
		}
	],
	"nodes":[
		{
			"mesh":0,
			"name":"Can",
			"rotation":[
				0.7071068286895752,
				0,
				0,
				0.7071068286895752
			]
		}
	],
	"materials":[
		{
			"doubleSided":true,
			"name":"Default OBJ",
			"pbrMetallicRoughness":{
				"baseColorFactor":[
					0.800000011920929,
					0.800000011920929,
					0.800000011920929,
					1
				],
				"metallicFactor":0,
				"roughnessFactor":0.5
			}
		}
	],
	"meshes":[
		{
			"name":"Can",
			"primitives":[
				{
					"attributes":{
						"POSITION":0,
						"NORMAL":1,
						"TEXCOORD_0":2
					},
					"indices":3,
					"material":0
				}
			]
		}
	],
	"accessors":[
		{
			"bufferView":0,
			"componentType":5126,
			"count":19291,
			"max":[
				52.24720001220703,
				52.24720764160156,
				0
			],
			"min":[
				-52.247222900390625,
				-52.24725341796875,
				-320.0979919433594
			],
			"type":"VEC3"
		},
		{
			"bufferView":1,
			"componentType":5126,
			"count":19291,
			"type":"VEC3"
		},
		{
			"bufferView":2,
			"componentType":5126,
			"count":19291,
			"type":"VEC2"
		},
		{
			"bufferView":3,
			"componentType":5123,
			"count":30240,
			"type":"SCALAR"
		}
	],
	"bufferViews":[
		{
			"buffer":0,
			"byteLength":231492,
			"byteOffset":0,
			"target":34962
		},
		{
			"buffer":0,
			"byteLength":231492,
			"byteOffset":231492,
			"target":34962
		},
		{
			"buffer":0,
			"byteLength":154328,
			"byteOffset":462984,
			"target":34962
		},
		{
			"buffer":0,
			"byteLength":60480,
			"byteOffset":617312,
			"target":34963
		}
	],
	"buffers":[
		{
			"byteLength":677792,
			"uri":"data:application/octet-stream;base64,"
		}
	]
}
