{
  "accessors": [
    {
      "bufferView": 3,
      "componentType": 5126,
      "count": 2606,
      "max": [
        0.06842345744371414,
        0.49989259243011475,
        0.06742911785840988
      ],
      "min": [
        -0.06842345744371414,
        5.87455595280062e-08,
        -0.0694177895784378
      ],
      "type": "VEC3"
    },
    {
      "bufferView": 3,
      "byteOffset": 31272,
      "componentType": 5126,
      "count": 2606,
      "max": [
        1.0,
        1.0,
        1.0
      ],
      "min": [
        -1.0,
        -1.0,
        -1.0
      ],
      "type": "VEC3"
    },
    {
      "bufferView": 4,
      "componentType": 5126,
      "count": 2606,
      "max": [
        1.0,
        0.9999562501907349,
        1.0,
        1.0
      ],
      "min": [
        -1.0,
        -0.9999399781227112,
        -1.0,
        1.0
      ],
      "type": "VEC4"
    },
    {
      "bufferView": 2,
      "componentType": 5126,
      "count": 2606,
      "max": [
        0.9969390630722046,
        0.9978402853012085
      ],
      "min": [
        0.0025193318724632263,
        0.004204213619232178
      ],
      "type": "VEC2"
    },
    {
      "bufferView": 1,
      "componentType": 5125,
      "count": 12972,
      "type": "SCALAR"
    },
    {
      "bufferView": 5,
      "componentType": 5126,
      "count": 3,
      "max": [
        1.0,
        0.0,
        2.384184938364342e-07,
        0.0,
        0.0,
        1.0000001192092896,
        0.0,
        0.0,
        0.0,
        0.0,
        1.0,
        0.0,
        0.0,
        0.0,
        0.0,
        1.0
      ],
      "min": [
        1.0,
        0.0,
        0.0,
        0.0,
        0.0,
        1.0,
        0.0,
        0.0,
        -2.384184938364342e-07,
        0.0,
        1.0,
        0.0,
        0.0,
        -0.4700649678707123,
        0.0,
        1.0
      ],
      "type": "MAT4"
    },
    {
      "bufferView": 0,
      "componentType": 5123,
      "count": 2606,
      "type": "VEC4"
    },
    {
      "bufferView": 4,
      "byteOffset": 41696,
      "componentType": 5126,
      "count": 2606,
      "max": [
        1.0,
        0.0,
        0.0,
        0.0
      ],
      "min": [
        1.0,
        0.0,
        0.0,
        0.0
      ],
      "type": "VEC4"
    },
    {
      "bufferView": 6,
      "componentType": 5126,
      "count": 189,
      "max": [
        5.791666507720947
      ],
      "min": [
        0.0
      ],
      "type": "SCALAR"
    },
    {
      "bufferView": 7,
      "componentType": 5126,
      "count": 189,
      "max": [
        0.0,
        0.4557100534439087,
        0.0
      ],
      "min": [
        0.0,
        0.44552677869796753,
        0.0
      ],
      "type": "VEC3"
    }
  ],
  "animations": [
    {
      "channels": [
        {
          "sampler": 0,
          "target": {
            "node": 11,
            "path": "translation"
          }
        }
      ],
      "name": "Armature|Action",
      "samplers": [
        {
          "input": 8,
          "interpolation": "LINEAR",
          "output": 9
        }
      ]
    }
  ],
  "asset": {
    "extras": {
      "author": "Isuk (https://sketchfab.com/Isuk)",
      "license": "CC-BY-4.0 (http://creativecommons.org/licenses/by/4.0/)",
      "source": "https://sketchfab.com/3d-models/spray-paint-can-7223f972a1b44194abdc8f84b896086d",
      "title": "Spray Paint Can"
    },
    "generator": "Sketchfab-12.67.0",
    "version": "2.0"
  },
  "bufferViews": [
    {
      "buffer": 0,
      "byteLength": 20848,
      "byteStride": 8,
      "name": "shortBufferViews",
      "target": 34962
    },
    {
      "buffer": 0,
      "byteLength": 51888,
      "byteOffset": 20848,
      "name": "floatBufferViews",
      "target": 34963
    },
    {
      "buffer": 0,
      "byteLength": 20848,
      "byteOffset": 72736,
      "byteStride": 8,
      "name": "floatBufferViews",
      "target": 34962
    },
    {
      "buffer": 0,
      "byteLength": 62544,
      "byteOffset": 93584,
      "byteStride": 12,
      "name": "floatBufferViews",
      "target": 34962
    },
    {
      "buffer": 0,
      "byteLength": 83392,
      "byteOffset": 156128,
      "byteStride": 16,
      "name": "floatBufferViews",
      "target": 34962
    },
    {
      "buffer": 0,
      "byteLength": 192,
      "byteOffset": 239520,
      "name": "floatBufferViews"
    },
    {
      "buffer": 0,
      "byteLength": 756,
      "byteOffset": 239712,
      "name": "floatBufferViews"
    },
    {
      "buffer": 0,
      "byteLength": 2268,
      "byteOffset": 240468,
      "byteStride": 12,
      "name": "floatBufferViews"
    }
  ],
  "buffers": [
    {
      "byteLength": 242736,
      "uri": "scene.bin"
    }
  ],
  "images": [
    {
      "uri": "textures/sprayCanMat_baseColor.png"
    },
    {
      "uri": "textures/sprayCanMat_metallicRoughness.png"
    },
    {
      "uri": "textures/sprayCanMat_normal.png"
    }
  ],
  "materials": [
    {
      "doubleSided": true,
      "name": "sprayCanMat",
      "normalTexture": {
        "index": 2
      },
      "occlusionTexture": {
        "index": 1
      },
      "pbrMetallicRoughness": {
        "baseColorTexture": {
          "index": 0
        },
        "metallicRoughnessTexture": {
          "index": 1
        }
      }
    }
  ],
  "meshes": [
    {
      "name": "sprayCan_sprayCanMat_0",
      "primitives": [
        {
          "attributes": {
            "JOINTS_0": 6,
            "NORMAL": 1,
            "POSITION": 0,
            "TANGENT": 2,
            "TEXCOORD_0": 3,
            "TEXCOORD_1": 3,
            "TEXCOORD_2": 3,
            "WEIGHTS_0": 7
          },
          "indices": 4,
          "material": 0,
          "mode": 4
        }
      ]
    }
  ],
  "nodes": [
    {
      "children": [
        1
      ],
      "matrix": [
        -0.6200143786563217,
        -3.0686661676818834e-17,
        -0.39372226540971056,
        0.0,
        -0.39372226540971056,
        -2.5578141430648805e-16,
        0.6200143786563217,
        0.0,
        -1.630212887008721e-16,
        0.7344624400138855,
        1.9947396918040087e-16,
        0.0,
        0.0005330456770025194,
        -2.0690183788067133e-08,
        -0.0018337748479098082,
        1.0
      ],
      "name": "Sketchfab_model"
    },
    {
      "children": [
        2
      ],
      "matrix": [
        0.009999999776482582,
        0.0,
        0.0,
        0.0,
        0.0,
        0.0,
        0.009999999776482582,
        0.0,
        0.0,
        -0.009999999776482582,
        0.0,
        0.0,
        0.0,
        0.0,
        0.0,
        1.0
      ],
      "name": "3dca78cc18464fc5a48f582c4ce2230f.fbx"
    },
    {
      "children": [
        3
      ],
      "name": "Object_2"
    },
    {
      "children": [
        4,
        5
      ],
      "name": "RootNode"
    },
    {
      "name": "sprayCan",
      "rotation": [
        -0.7071068286895752,
        0.0,
        0.0,
        0.7071067094802856
      ],
      "scale": [
        100.0,
        100.0,
        100.0
      ]
    },
    {
      "children": [
        6
      ],
      "name": "Armature",
      "rotation": [
        -0.7071068286895752,
        0.0,
        0.0,
        0.7071067094802856
      ],
      "scale": [
        100.0,
        100.0,
        100.0
      ]
    },
    {
      "children": [
        7,
        9,
        8
      ],
      "name": "Object_6"
    },
    {
      "children": [
        10
      ],
      "name": "_rootJoint"
    },
    {
      "matrix": [
        100.0,
        0.0,
        0.0,
        0.0,
        0.0,
        6.123233995736766e-15,
        -100.0,
        0.0,
        0.0,
        100.0,
        6.123233995736766e-15,
        0.0,
        0.0,
        -5.21540641784668e-08,
        0.0,
        1.0
      ],
      "name": "Object_8"
    },
    {
      "mesh": 0,
      "name": "Object_9",
      "skin": 0
    },
    {
      "children": [
        11
      ],
      "name": "canRoot_00",
      "rotation": [
        0.7071068286895752,
        0.0,
        0.0,
        0.7071067094802856
      ],
      "translation": [
        0.0,
        0.0,
        0.014354881830513477
      ]
    },
    {
      "name": "canValve_01",
      "rotation": [
        0.0,
        1.192092469182171e-07,
        0.0,
        1.0
      ],
      "scale": [
        1.0,
        0.9999999403953552,
        1.0
      ],
      "translation": [
        0.0,
        0.4557100534439087,
        0.0
      ]
    }
  ],
  "samplers": [
    {
      "magFilter": 9729,
      "minFilter": 9987,
      "wrapS": 10497,
      "wrapT": 10497
    }
  ],
  "scene": 0,
  "scenes": [
    {
      "name": "Sketchfab_Scene",
      "nodes": [
        0
      ]
    }
  ],
  "skins": [
    {
      "inverseBindMatrices": 5,
      "joints": [
        7,
        10,
        11
      ],
      "skeleton": 7
    }
  ],
  "textures": [
    {
      "sampler": 0,
      "source": 0
    },
    {
      "sampler": 0,
      "source": 1
    },
    {
      "sampler": 0,
      "source": 2
    }
  ]
}
