{
  "accessors": [
    {
      "bufferView": 0,
      "componentType": 5125,
      "count": 186624,
      "type": "SCALAR"
    },
    {
      "bufferView": 1,
      "componentType": 5126,
      "count": 31443,
      "max": [
        67.2433624267578,
        390.743621826172,
        67.2433776855469
      ],
      "min": [
        -67.2433624267578,
        -4.52902221679688,
        -67.2433700561523
      ],
      "type": "VEC3"
    },
    {
      "bufferView": 2,
      "componentType": 5126,
      "count": 31443,
      "type": "VEC3"
    },
    {
      "bufferView": 3,
      "componentType": 5126,
      "count": 31443,
      "type": "VEC4"
    },
    {
      "bufferView": 4,
      "componentType": 5126,
      "count": 31443,
      "type": "VEC2"
    }
  ],
  "asset": {
    "generator": "Adobe Substance 3D Painter 9.1.1",
    "version": "2.0"
  },
  "bufferViews": [
    {
      "buffer": 0,
      "byteLength": 746496,
      "target": 34963
    },
    {
      "buffer": 0,
      "byteLength": 377316,
      "byteOffset": 746496,
      "target": 34962
    },
    {
      "buffer": 0,
      "byteLength": 377316,
      "byteOffset": 1123812,
      "target": 34962
    },
    {
      "buffer": 0,
      "byteLength": 503088,
      "byteOffset": 1501128,
      "target": 34962
    },
    {
      "buffer": 0,
      "byteLength": 251544,
      "byteOffset": 2004216,
      "target": 34962
    }
  ],
  "buffers": [
    {
      "byteLength": 2255760,
      "uri": "Untitled.bin"
    }
  ],
  "images": [
    {
      "uri": "Can_Mat_baseColor.png"
    },
    {
      "uri": "Can_Mat_occlusionRoughnessMetallic.png"
    },
    {
      "uri": "Can_Mat_normal.png"
    }
  ],
  "materials": [
    {
      "alphaMode": "OPAQUE",
      "name": "Can_Mat",
      "normalTexture": {
        "index": 2
      },
      "occlusionTexture": {
        "index": 1
      },
      "pbrMetallicRoughness": {
        "baseColorTexture": {
          "index": 0
        },
        "metallicRoughnessTexture": {
          "index": 1
        }
      }
    }
  ],
  "meshes": [
    {
      "name": "can",
      "primitives": [
        {
          "attributes": {
            "NORMAL": 2,
            "POSITION": 1,
            "TANGENT": 3,
            "TEXCOORD_0": 4
          },
          "indices": 0,
          "material": 0,
          "mode": 4
        }
      ]
    }
  ],
  "nodes": [
    {
      "children": [
        1
      ],
      "name": "RootNode",
      "scale": [
        0.304800003767014,
        0.304800003767014,
        0.304800003767014
      ]
    },
    {
      "children": [
        2
      ],
      "name": "can",
      "scale": [
        0.0328084006905556,
        0.0328084006905556,
        0.0328084006905556
      ]
    },
    {
      "mesh": 0,
      "name": "can"
    }
  ],
  "samplers": [
    {
      "magFilter": 9729,
      "minFilter": 9985,
      "wrapS": 10497,
      "wrapT": 10497
    }
  ],
  "scene": 0,
  "scenes": [
    {
      "name": "Scene",
      "nodes": [
        0
      ]
    }
  ],
  "textures": [
    {
      "sampler": 0,
      "source": 0
    },
    {
      "sampler": 0,
      "source": 1
    },
    {
      "sampler": 0,
      "source": 2
    }
  ]
}